<?xml version="1.0" encoding="UTF-8"?>
<svg width="600px" height="600px" viewBox="0 0 600 600" version="1.1" xmlns="http://www.w3.org/2000/svg" xmlns:xlink="http://www.w3.org/1999/xlink">
    <!-- Generator: Sketch 44.1 (41455) - http://www.bohemiancoding.com/sketch -->
    <title>Artboard</title>
    <desc>Created with Sketch.</desc>
    <defs>
        <linearGradient x1="50%" y1="0%" x2="50%" y2="100%" id="linearGradient-1">
            <stop stop-color="#FFFFFF" offset="0%"></stop>
            <stop stop-color="#BEB9B9" offset="100%"></stop>
        </linearGradient>
    </defs>
    <g id="Page-1" stroke="none" stroke-width="1" fill="none" fill-rule="evenodd">
        <g id="Artboard">
            <g id="Profile" transform="translate(123.000000, 39.000000)">
                <g id="Face" transform="translate(16.000000, 144.000000)">
                    <path d="M38.4355469,217.670898 L38.5380859,221.969727 L38.5380859,225.90625 L38.5380859,228.423828 L38.4023438,231.920898 L38.4023438,235.12793 L38.4589844,238.286133 L38.640625,241.807617 L38.828125,243.668945 L39.2001953,248.398437 L39.4091797,253.086914 L39.4091797,256.829102 L40.9599609,262.478516 L42.2587891,266.290039 L43.5458984,272.575195 L45.4628906,276.716797 L47.0263672,281.072266 L48.6611328,286.798828 L51.2011719,289.446289 L53.9179688,292.861328 L57.6894531,297.30957 L60.8349609,300.316406 L64.1474609,303.212891 L67.9707031,306.615234 L72.5371094,310.043945 L77.8535156,314.632813 L83.0585938,316.59668 L86.4023438,319.027344 L91.8046875,321.405273 L96.1875,324.229492 L102.19043,326.401367 L108.457031,328.331055 L116.506836,331.100586 L122.449219,332.896484 L126.849609,333.686523 L133.240234,334.334961 L136.34668,334.256836 L142.652344,336.475586 L146.663086,338.697266 L149.961914,341.008789 L154.007812,343.512695 L156.875,346.268555 L161.28418,349.121094 L165.619141,352.024414 L168.741211,355.124023 L172.007812,358.9375 L175.647461,363.331055 L179.323242,366.774414 L182.128906,368.823242 L185.397461,370.805664 L188.452148,371.667969 L192.439453,373.237305 L194.973633,374.207031 L197.904297,375.204102 L202.963867,376.165039 L206.847656,376.613281 L212.800781,376.295898 L216.952148,375.942383 L221.271484,375.224609 L224.667969,374.18457 L229.18457,372.823242 L232.639648,371.069336 L236.152344,369.746094 L238.729492,368.056641 L242.021484,365.363281 L246.326172,363.107422 L248.797852,360.694336 L251.793945,357.464844 L255.101562,351.796875 L257.59668,346.767578 L261.661133,341.260742 L265.30957,334.125 L267.551758,327.826172 L269.060547,321.422852 L270.333984,316.152344 L271.103516,311.847656 L272.018555,306.707031 L273.09668,302.133789 L275.398437,298.189453 L278.518555,294.5 L282.198242,288.15918 L284.350586,284.481445 L286.989258,279.086914 L289.425781,273.912109 L292.020508,267.929688 L294.62793,261.876953 L296.768555,256.019531 L298.827148,247.461914 L300.679688,241.556641 L302.291992,235.444336 L303.514648,230.193359 L304.521484,225.90625 L305.067383,220.697266 L305.871094,215.789062 C305.871094,215.789062 306.255733,211.939744 306.419922,208.71875 C306.584111,205.497756 306.488659,205.333669 306.560547,202.263672 C306.632435,199.193674 306.610593,198.94137 306.714844,196.124023 C306.819095,193.306677 306.920979,193.724419 306.996094,190.493164 C307.071209,187.261909 307.135106,187.199188 306.996094,184.025391 C306.857081,180.851593 306.435547,177.695312 306.435547,177.695312 L306.160156,171.000977 L305.871094,166.876953 L305.067383,159.280273 L304.408203,154.344727 L303.951172,150.693359 L303.638672,146.708008 L303.673828,141.018555 L303.320312,137.62793 L303.083984,134.014648 L303.083984,131.59082 L304.042969,128.53125 L306.996094,124.662109 L309.52832,122.597656 L312.74707,121.173828 L316.269531,119.325195 L317.009766,116.206055 L317.220703,111.93457 L317.089844,107.825195 L315.828125,103.431641 L313.888672,100.238281 L312.204102,98.1181641 L310.125,95.2314453 L308.251953,93.1064453 L306.214844,89.4365234 L304.731445,83.4228516 L304.521484,78.5107422 L303.780273,72.5341797 L306.214844,67.5625 L306.237305,62.2792969 L306.237305,57.984375 L306.237305,53.3632813 L306.172852,48.4482422 L306.051758,42.8388672 L306.051758,38.4521484 L306.051758,34.2617187 L306.996094,32.2119141 L303.514648,29.703125 L300.427734,27.453125 L297.891602,25.8808594 L296.072266,23.9335937 L295.30957,21.8076172 L293.294922,19.0751953 L287.354492,18.1142578 L284.851562,16.1455078 L282.198242,13.9570312 L279.651367,10.7558594 L273.09668,8.7421875 L269.132812,7.95605469 L264.667969,7.79980469 L258.570312,8.30078125 L254.647461,8.56054688 L248.797852,9.14355469 L244.633789,9.32519531 L242.021484,7.06933594 L239.386719,9.14355469 L237.232422,10.0068359 L233.854492,9.9296875 L230.536133,9.72851562 L226.59082,8.76953125 L222.546875,7.96289063 L219.15918,7.17773438 L216.170898,5.92382812 L212.616211,4.99121094 L209.148438,4.02539062 L207.813477,1.39746094 L201.454102,1.24121094 L198.330078,1.08496094 L194.464844,1.00683594 L190.15625,0.942382812 L185.175781,0.942382812 L179.323242,2.60839844 L174.749023,2.97558594 L171.787109,3.38867187 L167.113281,4.4453125 L162.811523,5.21289062 L158.495117,5.45800781 L154.007812,7.06933594 L150.582031,8.12304687 L146.663086,8.18847656 L141.676758,8.7421875 L137.985352,10.7558594 L134.44043,12.4306641 L130.802734,13.9570312 L126.849609,15.5869141 L120.227539,16.8164062 L116.271484,17.5898438 L113.112305,20.7070312 L110.249023,22.2978516 L106.530273,23.5742188 L103.462891,25.3486328 L101.84375,27.75 L98.2792969,29.5390625 L96.4326172,32.2119141 L94.2285156,35.6425781 L93.5654297,38.734375 L90.5742188,38.734375 L88.7939453,41.3457031 L87.4824219,43.4013672 L86.9550781,45.6875 L86.4550781,49.2988281 L84.3554688,56.9580078 L84.3554688,64.9052734 L81.9658203,67.5625 L83.0585938,71.6953125 L80.4619141,75.0986328 L77.8535156,78.5107422 L74.9960938,81.6845703 L69.9541016,89.4365234 L67.9707031,95.2314453 C67.9707031,95.2314453 65.5493954,101.897609 64.1474609,103.058594 C62.7455265,104.219578 62.1044922,107.825195 62.1044922,107.825195 L60.8349609,114.256836 L59.7001953,119.325195 L57.6894531,124.662109 L41.4052734,129.214844 L39.8525391,129.345703 L37.8623047,127.624023 L34.8916016,123.408203 L32.7333984,120.484375 L31.1279297,118.366211 L29.2734375,116.210937 L27.3046875,114.256836 L24.7949219,111.93457 L21.8164062,108.762695 L19.6464844,106.738281 L16.7988281,104.496094 L14.2421875,102.893555 L11.8974609,102.432617 L9.36914063,102.37793 L6.46875,103.31543 L4.08007812,105.069336 L2.75878906,107.182617 L1.3046875,110.198242 L0.196289062,113.250977 L0.216796875,117.203125 L0.216796875,120.099609 L0.345703125,124.251953 L0.762695312,126.771484 L1.48632812,131.064453 L2.19042969,134.522461 L3.17871094,138.487305 L3.96386719,142.786133 L4.88378906,146.583984 L5.51464844,151.513672 L6.01464844,156.370117 L6.80957031,160.737305 L7.77148438,165.456055 L8.74316406,170.414062 L9.67773438,175.070312 L10.7421875,179.711914 L12.1083984,185.140625 L13.1484375,188.689453 L13.9667969,191.59375 L14.7490234,196.125 L15.9169922,199.889648 L16.8876953,202.243164 L19.0556641,204.858398 L20.5078125,206.564453 L22.8740234,208.71875 L24.5078125,210.480469 L27.1796875,213.074219 L28.5439453,215.075195 L29.9873047,215.789062 L32.3076172,216.106445 L35.2177734,216.737305 L37.1523438,216.737305 L38.4355469,217.670898 Z" fill="#E6E6E6"></path>
                    <g id="Right-Eye" transform="translate(251.000000, 125.000000)">
                        <g id="Round" transform="translate(16.000000, 4.000000)">
                            <circle id="Black" fill="#252424" cx="9" cy="9" r="9"></circle>
                            <circle id="Oval" fill="url(#linearGradient-1)" cx="6.17647059" cy="6.17647059" r="3"></circle>
                        </g>
                        <path d="M49.1464982,12.9904629 L52.0790528,10.0381307 L51.0284297,9.24226846 L49.0511601,7.92704683 L47.0689042,6.78757098 L45.3736317,5.66156087 L43.0473477,4.20028472 L41.080736,3.08004178 L38.881079,2.0130106 L36.6470143,1.25472008 L34.3668116,0.657550202 L32.1754026,0.334807764 L30.0385494,0.211984933 L27.5692443,0.34643926 C27.5692443,0.34643926 25.9710734,0.131787547 24.7393538,0.211984933 C23.5076342,0.292182318 22.7910156,0.657550202 22.7910156,0.657550202 L20.4665118,0.657550202 L18.4152952,1.31231346 L16.0355456,2.26027688 L14.1743667,3.33691953 L12.4695516,3.74096676 L10.4808138,5.04480939 L8.87408285,6.36274905 L6.85080044,8.01027745 C6.85080044,8.01027745 6.74502419,8.6386879 6.25180929,9.24226846 C5.75859439,9.84584902 3.36517094,12.2758789 3.36517094,12.2758789 L0.291093997,17.5337847 L0.109867836,18.5138595 L1.35639667,19.290587 L1.92783458,19.7343012 L3.36517094,17.2758789 C3.36517094,17.2758789 5.75859439,14.845849 6.25180929,14.2422685 C6.74502419,13.6386879 6.85080044,13.0102775 6.85080044,13.0102775 L8.87408285,11.362749 L10.4808138,10.0448094 L12.4695516,8.74096676 L14.1743667,8.33691953 L16.0355456,7.26027688 L18.4152952,6.31231346 L20.4665118,5.6575502 L22.7910156,5.6575502 C22.7910156,5.6575502 23.5076342,5.29218232 24.7393538,5.21198493 C25.9710734,5.13178755 27.5692443,5.34643926 27.5692443,5.34643926 L30.0385494,5.21198493 L32.1754026,5.33480776 L34.3668116,5.6575502 L36.6470143,6.25472008 L38.881079,7.0130106 L41.080736,8.08004178 L43.0473477,9.20028472 L45.3736317,10.6615609 L47.0689042,11.787571 L49.0511601,12.9270468 L49.1464982,12.9904629 Z" id="Combined-Shape" fill="#C8C8C8"></path>
                    </g>
                    <g id="Left-Eye" transform="translate(124.000000, 128.000000)">
                        <g id="Round" transform="translate(19.000000, 4.000000)">
                            <circle id="Black" fill="#252424" cx="9" cy="9" r="9"></circle>
                            <circle id="Oval" fill="url(#linearGradient-1)" cx="4.47" cy="5.49" r="2.55"></circle>
                        </g>
                        <path d="M57.2362425,14.7533239 L62.6367187,12.6660156 L59.6171875,11.6542969 L55.6835937,8.51367188 L50.3789062,5.7890625 L44.5449219,2.60546875 L37.4726562,0.94140625 L28.9316406,0.94140625 L21.6855469,2.5390625 L13.5839844,5.45117188 L6.1953125,9.83203125 L0.951171875,15.375 L3.68517526,17.4852042 L6.1953125,14.8320312 L13.5839844,10.4511719 L21.6855469,7.5390625 L28.9316406,5.94140625 L37.4726562,5.94140625 L44.5449219,7.60546875 L50.3789062,10.7890625 L55.6835937,13.5136719 L57.2362425,14.7533239 Z" id="Combined-Shape" fill="#C8C8C8"></path>
                    </g>
                    <polygon id="Ear" fill="#C8C8C8" points="25.0605469 138.677734 22.109375 136.373047 17.7314453 137.171875 17.2050781 141.038086 17.7109375 146.827148 19.4160156 151.470703 20.0449219 158.030273 21.3798828 162.493164 22.828125 168.34668 23.3564453 173.949219 25.6259766 179.632812 27.0449219 184.354492 30.2285156 184.717773 31.7021484 181.956055 29.6445313 176.794922 29.6445312 173.619141 29.6445312 171.766602 29.7626953 169.203125 30.6367188 164.003906 30.3564453 157.911133 28.7636719 155.831055 30.1220703 148.808594 30.1220703 144.926758 27.859375 140.782227"></polygon>
                </g>
                <g id="Hair" fill="#000000">
                    <path d="M27.1699219,245.306641 L33.6425781,248.029297 L37.546875,251.976563 L43.5566406,257.964844 L46.46875,261.32959 L50.3637695,266.712891 L55.2695312,273.554688 L63.7929687,273.554688 L75.5732422,273.554688 L76.7011719,266.712891 L79.8652344,253.333984 L84.8925781,240.414063 L89.6601562,230.763672 L97.625,219.433594 L101.921875,210.310547 L105.277344,202.59375 L107.378906,194.84375 L109.523438,188.5 L112.447266,181.851563 L117.853516,174.660156 L122.943359,170.689453 L129.101563,167.029297 L139.478516,162.087891 L148.154297,159.640625 L156.099609,157.046875 L166.066406,154.720703 L180.048828,150.859375 L193.126953,148.339844 L207.707031,147.126953 L218.902344,148.078125 L223.515625,149.857422 L227.71875,152.640625 L239.851562,153.753906 L246.908203,156.037109 L254.070312,156.037109 L263.162109,156.037109 L273.679688,154.572266 L288.8125,154.361328 L295.736328,156.951172 L300.8125,160.972656 L306.550781,164.003906 L310.958984,168.580078 L314.734375,171.486328 L320.724609,176.859375 L320.498047,197.375 L321.445313,214.765625 L325.869141,206.736328 L328.580078,195.330078 L331.580078,185.402344 L333.431641,170.603516 L344.789062,162.652344 L349.792969,149.857422 L353.308594,134.863281 L353.308594,121.003906 L352.654297,105.087891 L352.654297,92.0898438 L346.878906,85.7539063 L342.126953,84.4023438 L334.335938,85.671875 L331.396484,88.1308594 L320.923828,65.0175781 L315.109375,53.6367188 L300.613281,36.9492188 L294.070312,29.9375 L288.261719,28.0625 L283.271484,19.0605469 L278.964844,15.9902344 L265.554688,15.1445313 L256.517578,13.6933594 L243.970703,11.7617188 L228.322266,7.27734375 L210.732422,2.04101563 L194.275391,0.49609375 L171.431641,1.68164063 L157.855469,1.94726563 L145.632812,5.65234375 L135.425781,12.4296875 L123.763672,14.6914063 L109.019531,17.9785156 C103.283658,19.727739 98.4770176,21.463416 94.5996094,23.1855469 C88.7834971,25.7687431 88.9910552,26.5339785 83.6679687,29.2382813 C78.3448823,31.942584 77.9397854,31.3443895 72.7167969,34.3027344 C67.4938083,37.2610793 68.2486258,37.6873911 62.9921875,40.9492188 C59.4878953,43.1237705 55.8511765,45.1765049 52.0820312,47.1074219 L40.296875,54.4960938 L30.8378906,61.4902344 L22.1757812,67.0117188 L19.0859375,73.1972656 L16.3945312,78.5449219 L9.08984375,86.6113281 L5.5234375,96.5332031 L4.1171875,105.087891 L1.81640625,121.003906 L0.744140625,132.003906 L2.1953125,138.4375 L2.29882812,146.425781 L1.88085937,156.166016 L1.88085937,163.152344 L5.23828125,171.408203 L8.44921875,179.953125 L27.1699219,245.306641 Z" id="Path-3"></path>
                </g>
                <g id="Eyebros" transform="translate(117.000000, 230.000000)" fill="#000000">
                    <polygon id="Path-7" points="0.7421875 42.9335938 16.8203125 30.734375 27.34375 25.4570312 41.046875 25.4570312 58.4570313 27.1875 73.3242188 27.9609375 85.921875 31.4257813 96.09375 34.0273438 105.320313 30.734375 107.371094 25.4570312 107.371094 14.5742188 102.789062 9.96484375 96.09375 7.56640625 86.8046875 6.43359375 77.125 6.43359375 65.46875 6.22265625 58.8867188 5.26953125 50.4179688 5.26953125 41.046875 4.4296875 34.28125 3.0703125 27.34375 0.03125 20.5742188 1.9296875 16.8203125 7.56640625 11.09375 15.671875 6.4296875 25.4570312 2.92382813 31.4257812"></polygon>
                    <polygon id="Path-8" points="158.273438 17.65625 154.136719 25.078125 155.582031 31.1171875 161.023438 36.3203125 169.921875 33.2382812 181.089844 30.0742188 192.527344 30.0742188 199.289062 30.0742188 206.933594 32.1015625 213.097656 34.1367188 215.179688 27.2421875 212.167969 19.7734375 207.492188 14.859375 201.1875 9.421875 191.230469 7.96875 180.0625 9.34375 171.851562 12.2773438 164.214844 14.5664062"></polygon>
                </g>
                <g id="Nose" transform="translate(205.000000, 306.000000)" fill-rule="nonzero" fill="#C8C5C5">
                    <path d="M7.60914408,47.1013949 C-4.05887617,72.5497494 -3.06812856,76.2003988 16.0680227,78.4518834 C16.9074293,78.5506446 25.0542196,79.4458263 27.8896359,79.7898601 L28.2509891,76.8117024 C25.3946449,76.4651292 17.2405079,75.5691403 16.418573,75.4724347 C6.92455203,74.3554054 3.87542926,73.2437527 3.15549333,70.5909745 C2.31041728,67.4770872 4.16512627,61.8109858 10.3361684,48.3517301 L7.60914408,47.1013949 Z" id="Path-10"></path>
                    <path d="M64.3429099,41.4865969 C62.7345714,51.5791687 64.3607565,57.5806917 68.7003098,63.1554813 C69.0730868,63.6343676 71.0288849,65.9956122 71.479635,66.6084488 C73.9241393,69.931979 73.6694435,72.6968837 69.0729173,79.1234688 L71.5130202,80.8687187 C76.8063877,73.4678524 77.1895489,69.308363 73.896334,64.8309319 C73.3834897,64.1336726 71.3910162,61.7281496 71.0676242,61.3127055 C67.2302603,56.3830515 65.8302571,51.2162652 67.3055276,41.9587156 L64.3429099,41.4865969 Z" id="Path-11"></path>
                </g>
                <g id="Group" transform="translate(54.000000, 273.000000)">
                    <path d="M21.3535156,3.17578125 L20.2578125,12.2734375 L20.2578125,19.3125 L20.9746094,25.875 L21.6464844,32.4746094 L22.5234375,41.3242188 L23.4492188,46.7949219 L24.2558594,54.2460938 L25.3359375,62.6113281 L26.8046875,66.5253906 L29.1425781,72.9042969 L32.7558594,79.7539062 L35.5429688,84.6855469 L39.0410156,90.609375 L42.9824219,96.6113281 L47,102.162109 L49.3017578,106.099609 L51.6835938,110.249023 L54.0019531,113.629883 L57.1816406,118.075195 L60.5810547,121.883789 L63.34375,125.116211 L66.5019531,128.488281 L70.0839844,131.662109 L73.7197266,134.19043 L77.6933594,136.783203 L82.0126953,139.104492 L86.6201172,140.829102 L92.5517578,142.533203 L98.3457031,143.490234 L101.838867,143.760742 L103.036133,146.595703 L104.283203,149.535156 L105.415039,152.262695 L107.420898,154.361328 L111.055664,154.063477 L111.899414,150.751953 L111.899414,146.607422 L111.871094,142.136719 L112.922852,136.139648 L115.360352,131.009766 L119.085938,127.523438 L124.427734,125.574219 L128.365234,124.59668 L133.788086,123.630859 L138.03125,121.695313 L144.641602,119.120117 L150.176758,115.53418 L153.131836,114.618164 L155.575195,112.195313 L158.083008,110.293945 L163.089844,109.860352 L170.264648,109.805664 L175.052734,109.805664 L178.889648,109.910156 L184.316406,110.783203 L189.083008,112.506836 L192.550781,114.290039 L195.944336,116.089844 L199.097656,118.324219 L202.308594,118.96875 L205.871094,118.844727 L209.705078,118.426758 L213.269531,117.453125 L216.6875,116.47168 L218.013672,113.939453 L221.175781,112.4375 L224.391602,112.836914 L228.101562,114.31543 L231.138672,116.046875 L234.401367,117.807617 L236.55957,119.383789 L238.905273,121.016602 L241.435547,123.537109 L242.9375,126.09082 L246.068359,130.273438 L247.884766,131.695313 L247.613281,134.854492 L247.44043,138.68457 L246.383789,141.855469 L246.011719,146.604492 L247.592773,146.604492 L248.566406,144.696289 L250.828125,139.916016 L252.711914,134.998047 L254.560547,129.116211 L255.62207,125.518555 L257.982422,118.589844 L259.339844,113.230469 L260.133789,110.503906 L261.428711,106.989258 L262.999023,104.208984 L263.856445,107.837891 L262.609375,113.824219 L261.208984,119.37207 L259.288086,125.173828 L256.901367,132.036133 L255.164063,139.022461 L253.316406,144.231445 L250.339844,149.523437 L246.163086,155.388672 L243.71875,160.004883 L240.451172,165.859375 L237.146484,172.431641 L235.881836,176.916016 L234.767578,182.288086 L232.820312,187.073242 L231.736328,193.180664 L230.042969,199.842773 L228.734375,203.929688 L227.459961,208.010742 L226.260742,210.472656 L224.677734,213.229492 L222.407227,218.268555 L219.655273,222.729492 L217.326172,226.478516 L213.03418,229.995117 C213.03418,229.995117 210.256827,232.48201 207.853516,233.797852 C205.450205,235.113694 199.097656,240.855469 199.097656,240.855469 L192.550781,243.361328 C192.550781,243.361328 188.202895,245.385416 182.861328,247.428711 C177.519761,249.472006 170.264648,249.714844 170.264648,249.714844 L159.814453,247.428711 C159.814453,247.428711 156.888482,245.727726 153.131836,245.360352 C149.37519,244.992977 143.398437,240.855469 143.398437,240.855469 C143.398437,240.855469 138.676311,235.665033 136.164062,234.272461 C133.651814,232.879888 131.664063,230.730469 131.664063,230.730469 L126.328125,226.50293 L119.00293,218.927734 L113.854492,214.81543 L106.817383,209.634766 L100.804688,207.117188 L95.4257813,202.897461 L87.1728516,197.382813 L77.6884766,192.475586 L69.6474609,185.9375 L64.0927734,181.482422 L59.0195313,176.860352 L53.0332031,171.024414 L47.234375,165.087891 L42.0576172,158.683594 L37.1630859,151.9375 L33.3076172,146.158203 L30.1357422,139.760742 L27.9648437,134.011719 L25.9082031,125.996094 L23.2275391,117.270508 L21.0371094,109.870117 L18.6542969,102.27832 L17.3144531,95.2578125 L16.1142578,83.3427734 L14.9765625,72.9521484 L13.3310547,62.7109375 L12.1884766,54.6611328 L11.3720703,44.9150391 L10.3623047,37.0751953 L9.30078125,28.7548828 L7.26757813,21.9150391 L6.046875,16.375 L2.77148438,5.60546875 L0.975585938,0.192382812 L10.3623047,0.192382812 L18.6542969,0.192382812 L20.2578125,0.192382812 L21.6464844,0.192382812 L21.3535156,3.17578125 Z" id="Beard" fill="#000000"></path>
                    <polygon id="Path-4" fill="#E6E6E6" points="139.237305 147.08101 147.34375 145.122709 152.958984 143.868349 158.65625 142.851755 164.227539 142.174026 169.555664 140.897199 174.654297 139.940515 178.748047 139.390094 184.856445 138.918304 191.381836 138.646838 196.475586 138.320143 201.446289 138.121692 207.363281 138.074887 211.104492 138 215.017578 138.147902 219.226562 139.101778 223.313477 140.383285 226.744141 141.332481 229.333008 142.835841 233.408203 145.670322 235.746094 147.91413 237.017578 150.505227 237.094727 153.369663 237.227539 156.322091 235.887695 159.292305 233.998047 163.759327 232.364258 170.233326 230.025391 175.115972 226.070312 183.735489 222.710938 188.132305 219.743164 192.184638 216.818359 196.198593 214.494141 198.959122 212.532227 200.252799 209.928711 200.757351 208.300781 199.756671 207.90625 197.818029 208.115234 194.402236 209.319336 189.353902 210.024414 185.312801 210.9375 180.479768 211.000977 177.326081 209.313477 177.049934 205.404297 177.049934 202.969727 177.049934 198.936523 176.913265 194.865234 176.913265 190.980469 176.987216 187.492188 177.061167 184.107422 176.784084 181.59082 176.784084 178.898438 176.784084 175.800781 177.308295 173.945312 177.180987 172.356445 177.361652 172.330078 180.804591 172.474609 184.24285 172.810547 186.545632 172.810547 189.637537 172.681641 192.221146 172.835938 194.563243 173.12207 197.017672 172.703125 199.684592 171.079102 202.09128 169.355469 202.214844 167.438477 201.808581 163.711914 201.419167 160.469727 200.615066 156.510742 199.119194 151.636719 197.443593 147.948242 195.345815 144.322266 192.908236 140.516602 190.007293 136.958008 187.483594 133.675781 184.498403 129.805664 180.956238 127.222656 177.118269 124.866211 173.6201 123.182617 170.070446 121.484375 165.494838 121.429688 161.450929 121.429688 158.859831 122.168945 156.134873 124.0625 152.496291 126.791992 151.07437 131.109375 149.492378 134.016602 148.434596"></polygon>
                    <g id="Lips" transform="translate(132.000000, 135.000000)">
                        <path d="M1.62207133,13.3134766 L6.11751416,10.5566406 L11.6863394,8.2109375 L17.5763425,6.60253906 L23.5992106,5.47753906 L30.4129922,4.40820312 L36.1502527,3.5078125 L42.369803,3.00097656 L48.3246693,2.31445312 L54.6875465,1.52148437 L59.5303217,1.33886719 L65.3617386,1.02246094 L70.4294428,0.760742188 L75.4615769,0.760742188 L79.9768972,0.760742188 L84.6847149,0.760742188 L90.0066413,1.28710938 L94.0302562,2.37695312 L96.6593108,3.42089844 L99.4787705,4.19238281 L101.834772,5.63769531 L104.071508,7.72460938 L105.227539,10.4082031 L105.163722,16.3847656 L102.001115,20.4287109 L98.2275372,25.7148438 L95.3144531,28.046875 L91.9335937,29.9892578 C91.9335937,29.9892578 89.4636835,31.6166801 86.8701172,32.6074219 C84.2765509,33.5981636 82.8030221,35.2373498 79.9768972,36.1201172 C77.1507722,37.0028845 73.2744141,37.1943359 73.2744141,37.1943359 L67.7646484,38.5791016 L60.8486328,38.5791016 C60.8486328,38.5791016 57.3392458,38.1287783 52.8891602,38.5791016 C48.4390745,39.0294248 46.3025865,38.0782972 40.9726562,37.1943359 C35.642726,36.3103747 31.8769531,34.0927734 31.8769531,34.0927734 L26.8573732,32.6074219 L20.1611328,29.9892578 C20.1611328,29.9892578 18.0607362,29.0109061 15.625,27.0166016 C13.1892638,25.022297 11.5294122,22.921875 11.5294122,22.921875 L7.28923769,19.6796875 L2.50295633,16.8671875 L0.55078125,14.6347656 L1.62207133,13.3134766 Z" id="Path-5" fill="#BCB3B4"></path>
                        <polygon id="Path-6" fill="#979595" points="5.08105469 15.574046 12.7224271 15.2951077 19.1593838 14.9711282 28.8508031 14.4701455 38.6321831 14.7419721 47.3118085 15.6917849 55.4791868 16.6494996 62.5268182 17.2271312 70.0549459 16.9663673 76.6633572 15.6736104 82.0377186 14.6597919 86.5717407 13.9612607 90.8612812 13.2793236 94.1115104 12.2560228 98.6084898 12 100.84375 12.5428631 96.9849628 14.9513734 93.3272643 15.6894143 88.8768528 17.022471 83.7162805 18.531741 77.6550423 19.857686 67.0354396 21.1117233 61.6314441 21.1630859 52.9909781 20.6139013 44.5494841 19.9612013 35.5671673 19.1006804 30.1504714 18.331822 23.2499523 17.9225016 17.7898636 17.8592862 11.8344615 17.7328552 7.08135855 16.8067482"></polygon>
                    </g>
                </g>
            </g>
        </g>
    </g>
</svg>