<?xml version="1.0" encoding="UTF-8" standalone="no"?>
<svg width="61px" height="47px" viewBox="0 0 61 47" version="1.1" xmlns="http://www.w3.org/2000/svg" xmlns:xlink="http://www.w3.org/1999/xlink" xmlns:sketch="http://www.bohemiancoding.com/sketch/ns">
    <!-- Generator: Sketch 3.3.2 (12043) - http://www.bohemiancoding.com/sketch -->
    <title>twitter</title>
    <desc>Created with Sketch.</desc>
    <defs></defs>
    <g id="Page-1" stroke="none" stroke-width="1" fill="none" fill-rule="evenodd" sketch:type="MSPage">
        <g id="twitter" sketch:type="MSLayerGroup" fill="#000000">
            <g id="Group" sketch:type="MSShapeGroup">
                <path d="M59.3,7.9 C57.4,8.8 55.3,9.5 53.2,9.9 C51.1,6.5 47.6,4.1 43.6,3.5 C42.9,3.4 42.2,3.3 41.5,3.3 C34.7,3.3 29,8.2 28,14.9 C27.9,15.6 27.8,16.4 27.8,17.1 C20,14.2 13.6,8.4 10,0.8 C9.8,0.4 9.4,0.2 9,0.1 C8.6,0.1 8.2,0.3 7.9,0.6 C5.6,4.1 5,8.3 6.2,12.2 C6,12.2 5.8,12.1 5.7,12.2 C5.2,12.3 4.9,12.6 4.8,13.1 C3.7,17.3 4.8,21.8 7.4,25.1 C7.1,25.1 6.9,25.2 6.7,25.4 C6.3,25.7 6.2,26.2 6.3,26.6 C7.4,30.9 10.5,34.4 14.5,35.9 C10.3,37.4 5.9,38 1.4,37.7 C0.9,37.7 0.4,38 0.2,38.5 C-1.4391266e-14,39 0.2,39.5 0.6,39.9 C5.1,43.3 10.4,45.5 16,46.4 C17.8,46.7 19.5,46.8 21.3,46.8 C36.7,46.8 50.3,36.5 54.4,21.7 C54.7,20.9 54.9,20 55,19.2 C55,19 55.1,18.8 55.1,18.6 C55.2,18.3 55.2,18 55.3,17.7 L55.3,17.7 C57.6,15.3 59.5,12.6 60.9,9.6 C61.1,9.2 61,8.6 60.7,8.3 C60.3,7.8 59.7,7.7 59.3,7.9 L59.3,7.9 Z M43.7,14.7 C42.4,14.5 41.5,13.3 41.7,12 C41.9,10.7 43.1,9.8 44.4,10 C45.7,10.2 46.6,11.4 46.4,12.7 C46.2,14 45,14.9 43.7,14.7 L43.7,14.7 Z" id="Shape"></path>
            </g>
        </g>
    </g>
</svg>