<?xml version="1.0" encoding="UTF-8"?>
<svg width="24px" height="24px" viewBox="0 0 24 24" version="1.1" xmlns="http://www.w3.org/2000/svg" xmlns:xlink="http://www.w3.org/1999/xlink">
    <!-- Generator: Sketch 44.1 (41455) - http://www.bohemiancoding.com/sketch -->
    <title>linkedin-4 - fontello</title>
    <desc>Created with Sketch.</desc>
    <defs></defs>
    <g id="welcome" stroke="none" stroke-width="1" fill="none" fill-rule="evenodd">
        <g id="social__icons" transform="translate(-288.000000, -557.000000)" fill="#B0B0B0">
            <g id="Left">
                <path d="M288,560.21 C288,559.44333 288.268331,558.807003 288.805,558.301 C289.341669,557.794997 290.035496,557.545833 290.8865,557.5535 C291.737504,557.561167 292.427497,557.814164 292.9565,558.3125 C293.485503,558.810836 293.75,559.466329 293.75,560.279 C293.75,561.015004 293.485503,561.632164 292.9565,562.1305 C292.427497,562.628836 291.726004,562.878 290.852,562.878 L290.829,562.878 C289.985662,562.878 289.303336,562.625003 288.782,562.119 C288.260664,561.612997 288,560.97667 288,560.21 Z M288.299,580.335 L288.299,564.971 L293.405,564.971 L293.405,580.335 L288.299,580.335 Z M296.234,580.335 C296.264667,575.70431 296.28,572.108679 296.28,569.548 C296.28,566.987321 296.264667,565.461669 296.234,564.971 L301.34,564.971 L301.34,567.156 L301.317,567.202 L301.34,567.202 L301.34,567.156 C302.444006,565.453991 303.98499,564.603 305.963,564.603 C307.726342,564.587667 309.144661,565.170327 310.218,566.351 C311.291339,567.531673 311.828,569.256655 311.828,571.526 L311.828,580.335 L306.722,580.335 L306.722,572.124 C306.722,569.808655 305.863342,568.651 304.146,568.651 C303.501997,568.635667 302.957669,568.811998 302.513,569.18 C302.068331,569.548002 301.738668,569.992664 301.524,570.514 C301.401333,570.805335 301.34,571.219331 301.34,571.756 L301.34,580.335 L296.234,580.335 Z" id="linkedin-4---fontello"></path>
            </g>
        </g>
    </g>
</svg>