<?xml version="1.0" encoding="UTF-8"?>
<svg width="86px" height="127px" viewBox="0 0 86 127" version="1.1" xmlns="http://www.w3.org/2000/svg" xmlns:xlink="http://www.w3.org/1999/xlink">
    <!-- Generator: Sketch 44.1 (41455) - http://www.bohemiancoding.com/sketch -->
    <title>me</title>
    <desc>Created with Sketch.</desc>
    <defs>
        <linearGradient x1="50%" y1="0%" x2="50%" y2="100%" id="linearGradient-1">
            <stop stop-color="#FFFFFF" offset="0%"></stop>
            <stop stop-color="#BEB9B9" offset="100%"></stop>
        </linearGradient>
    </defs>
    <g id="Welcome" stroke="none" stroke-width="1" fill="none" fill-rule="evenodd">
        <g id="Home" transform="translate(-213.000000, -136.000000)" fill-rule="nonzero">
            <g id="Left">
                <g id="me" transform="translate(213.000000, 136.000000)">
                    <g id="Face" transform="translate(3.887006, 34.967495)">
                        <path d="M9.33744925,52.8569867 L9.36235985,53.9008706 L9.36235985,54.8567758 L9.36235985,55.4681188 L9.32938296,56.3173118 L9.32938296,57.0960748 L9.3431431,57.8629807 L9.38727048,58.718102 L9.43282133,59.170088 L9.52321129,60.3185497 L9.57398151,61.4570518 L9.57398151,62.3657666 L9.95072496,63.7376129 L10.2662595,64.6631643 L10.5789471,66.1893877 L11.044657,67.1950922 L11.4244847,68.25273 L11.8216311,69.64331 L12.4387028,70.2861925 L13.0987156,71.1154659 L14.0149519,72.1956317 L14.7791148,72.9257812 L15.5838464,73.6291341 L16.5126567,74.4553245 L17.6220096,75.2879178 L18.9135659,76.4022318 L20.1780765,76.8791173 L20.9903999,77.469355 L22.3028337,78.0467871 L23.3675847,78.7325917 L24.8259237,79.2599878 L26.3483183,79.7285736 L28.3039206,80.4010983 L29.7475504,80.8371959 L30.8165717,81.029041 L32.3690964,81.186501 L33.1237697,81.16753 L34.6556542,81.7063086 L35.6300152,82.2457988 L36.4314254,82.8071056 L37.4143272,83.4151286 L38.1108757,84.0843336 L39.1820324,84.7770152 L40.2351585,85.4820279 L40.9936275,86.2347054 L41.7872086,87.1607314 L42.6714171,88.2276176 L43.5644034,89.0637678 L44.2460054,89.5612844 L45.0400611,90.0426756 L45.7821602,90.252069 L46.7508276,90.6331505 L47.3664758,90.8686289 L48.078445,91.1107475 L49.3076061,91.3440917 L50.2511255,91.4529382 L51.6973649,91.3758682 L52.7058891,91.2900242 L53.7552193,91.1157272 L54.5803541,90.8631747 L55.6776074,90.5326037 L56.5169766,90.106703 L57.3703435,89.7853804 L57.9964303,89.3751308 L58.7961797,88.7211027 L59.8419514,88.1733128 L60.442416,87.5873435 L61.1702804,86.8031266 L61.9738258,85.4267746 L62.5799844,84.2055113 L63.5673939,82.8682873 L64.4537373,81.1355163 L64.9984497,79.6059729 L65.3649916,78.0510558 L65.6743577,76.7712193 L65.8613061,75.7259126 L66.0836038,74.4776156 L66.3455211,73.367096 L66.904705,72.4092936 L67.6626998,71.5133843 L68.5566351,69.9736441 L69.0795209,69.0805803 L69.7205542,67.7706273 L70.3124779,66.5140303 L70.9428353,65.06132 L71.5762768,63.5915354 L72.0963156,62.1691787 L72.5964258,60.091134 L73.0464779,58.6571576 L73.4381675,57.1729076 L73.735197,55.8978138 L73.9797955,54.8567758 L74.1124151,53.5918791 L74.3076669,52.4000208 C74.3076669,52.4000208 74.4011103,51.4652916 74.440998,50.6831381 C74.4808857,49.9009847 74.4576968,49.8611395 74.4751611,49.1156527 C74.4926255,48.3701656 74.4873192,48.3088986 74.5126457,47.6247628 C74.5379722,46.9406271 74.5627237,47.0420673 74.580972,46.2574222 C74.5992203,45.4727771 74.6147433,45.4575466 74.580972,44.686854 C74.5472005,43.9161612 74.4447939,43.149722 74.4447939,43.149722 L74.377891,41.5241378 L74.3076669,40.5227018 L74.1124151,38.6780013 L73.9522753,37.4795035 L73.8412452,36.5928424 L73.7653271,35.6250803 L73.7738678,34.2435114 L73.6879854,33.4201666 L73.6305724,32.5427539 L73.6305724,31.9541762 L73.8635461,31.2112213 L74.580972,30.2716785 L75.1961455,29.7703677 L75.9781018,29.4246198 L76.8338409,28.9757166 L77.013672,28.2182963 L77.0649165,27.1810524 L77.0331259,26.1831735 L76.7266066,25.1162876 L76.2554401,24.3408445 L75.8461943,23.8260169 L75.3411017,23.1250355 L74.8860677,22.6090221 L74.3911768,21.7178556 L74.030803,20.2575567 L73.9797955,19.06475 L73.7997273,17.6134624 L74.3911768,16.4061902 L74.3966334,15.1232709 L74.3966334,14.0803358 L74.3966334,12.9581964 L74.3809753,11.7646783 L74.351557,10.4025548 L74.351557,9.33732858 L74.351557,8.31976726 L74.580972,7.82201356 L73.735197,7.21280473 L72.9852687,6.66643762 L72.3691462,6.28464463 L71.9271607,5.81179044 L71.7418729,5.29553993 L71.2524387,4.63202639 L69.8092834,4.3986821 L69.2012269,3.92061088 L68.5566351,3.38918348 L67.9379027,2.61184349 L66.3455211,2.12286389 L65.3825475,1.93196739 L64.2978682,1.89402523 L62.8165165,2.01567728 L61.8635075,2.07875613 L60.442416,2.22032781 L59.4308075,2.26443557 L58.7961797,1.71664563 L58.1560956,2.22032781 L57.6327353,2.42995824 L56.8121082,2.41122431 L56.0059532,2.36237377 L55.0474873,2.12950376 L54.06506,1.93362736 L53.2420607,1.742968 L52.5160939,1.43848216 L51.6525258,1.21201489 L50.8100725,0.977484912 L50.4857599,0.3393452 L48.940827,0.301403039 L48.1818834,0.263460878 L47.2428717,0.244489798 L46.1961511,0.228838656 L44.9862067,0.228838656 L43.5644034,0.633396944 L42.4531525,0.722561022 L41.7335915,0.822870607 L40.5981417,1.07945447 L39.5530819,1.26584533 L38.5044635,1.3253671 L37.4143272,1.71664563 L36.5820753,1.97251807 L35.6300152,1.98840635 L34.4186474,2.12286389 L33.5218652,2.61184349 L32.6606694,3.01853602 L31.7769354,3.38918348 L30.8165717,3.78496767 L29.2078202,4.08352502 L28.2467447,4.27133874 L27.4792605,5.02828482 L26.783661,5.41458347 L25.8802358,5.72452349 L25.1350526,6.15540414 L24.741702,6.73852772 L23.8757614,7.17296546 L23.427133,7.82201356 L22.8916733,8.65508111 L22.7305846,9.40586162 L22.0039063,9.40586162 L21.5714104,10.03997 L21.2527918,10.5391465 L21.12468,11.0942878 L21.0032111,11.9712259 L20.4931365,13.8311032 L20.4931365,15.7609364 L19.9126004,16.4061902 L20.1780765,17.4097604 L19.5472447,18.2361881 L18.9135659,19.06475 L18.21939,19.8354501 L16.9944993,21.7178556 L16.5126567,23.1250355 C16.5126567,23.1250355 15.9244294,24.7437789 15.5838464,25.0257006 C15.2432635,25.3076222 15.087532,26.1831735 15.087532,26.1831735 L14.7791148,27.7449678 L14.5034373,28.9757166 L14.0149519,30.2716785 L10.0589082,31.3772183 L9.68169029,31.4089948 L9.19818702,30.9909195 L8.47649078,29.9671927 L7.95218153,29.2572 L7.56215241,28.7428466 L7.11162606,28.2194818 L6.63334216,27.7449678 L6.02362509,27.1810524 L5.30003088,26.4108265 L4.77287474,25.9192384 L4.08107123,25.3747685 L3.45996645,24.9856243 L2.89034361,24.8736948 L2.27611891,24.8604151 L1.57150424,25.0880681 L0.991205419,25.5139688 L0.670214291,26.0271364 L0.31695798,26.7594201 L0.0476860433,27.5007153 L0.0526681674,28.4604147 L0.0526681674,29.1637674 L0.083984375,30.1720804 L0.185287562,30.7838976 L0.361085362,31.8263586 L0.532138286,32.6660661 L0.772229211,33.6288484 L0.962973385,34.6727321 L1.18645723,35.5949636 L1.33971685,36.7920389 L1.46118578,37.9713286 L1.65430239,39.0318121 L1.88798773,40.1776654 L2.12404551,41.3816173 L2.35108801,42.5122937 L2.60968397,43.6394132 L2.94158831,44.9576661 L3.19425318,45.8194274 L3.39306365,46.5246773 L3.58309608,47.625 L3.86683991,48.5391688 L4.10266044,49.1106727 L4.62934213,49.7457295 L4.98212394,50.1600106 L5.55696614,50.6831381 L5.95387535,51.1109361 L6.60297493,51.7407759 L6.93440479,52.2266726 L7.28505142,52.4000208 L7.84874316,52.4770909 L8.55573026,52.6302825 L9.02571064,52.6302825 L9.33744925,52.8569867 Z" id="Shape" fill="#E6E6E6"></path>
                        <g id="Right-Eye" transform="translate(60.491525, 28.896750)">
                            <path d="M0.43896225,4.4636877 L1.33587441,3.28740098 C1.33587441,3.28740098 1.98493861,2.77254546 2.12173607,2.64166654 C2.25853353,2.51078763 2.30264419,2.36245855 2.30264419,2.36245855 L2.83929011,2.02524759 L3.2657362,1.75514684 L3.78387709,1.49974867 L4.20691658,1.45281675 L4.68757293,1.24840335 L5.28946094,1.09035054 L5.80345007,0.993242323 L6.36395077,1.06203256 C6.36395077,1.06203256 6.54756422,0.995178918 6.84693948,1.01230067 C7.14631476,1.02942242 7.52532183,1.12845322 7.52532183,1.12845322 L8.12471878,1.16912247 L8.63633547,1.2619622 L9.15518808,1.40460101 L9.68732636,1.61600998 L10.2035693,1.86488685 L10.7023748,2.18715807 L11.1434114,2.51535776 L11.6610778,2.93639717 L12.0365164,3.25795699 L12.4807558,3.59125516 L12.9185896,3.96676397 L13.1483604,4.18967416 L12.1717455,4.95764721 L11.2719976,5.52369682 L10.4090226,6.03081751 L9.6895802,6.30530533 L9.06467949,6.53770105 L8.21866741,6.71045646 L7.20587279,6.77709239 L6.13898653,6.77555098 L5.10056954,6.71519924 L4.11399039,6.49738751 L3.20226171,6.23451949 L2.56039806,6.0261933 L1.74570219,5.70285497 L1.08201211,5.35402422 L0.643822442,4.91863794 L0.366246967,4.69454204 L0.43896225,4.4636877 Z" id="Face-color" fill="#C8C8C8" transform="translate(6.757304, 3.885167) rotate(-7.000000) translate(-6.757304, -3.885167) "></path>
                            <path d="M0.43896225,5.67783684 L1.33587441,4.50155012 C1.33587441,4.50155012 1.98493861,3.9866946 2.12173607,3.85581568 C2.25853353,3.72493677 2.30264419,3.57660769 2.30264419,3.57660769 L2.83929011,3.23939673 L3.2657362,2.96929597 L3.78387709,2.7138978 L4.20691658,2.66696589 L4.68757293,2.46255249 L5.28946094,2.30449968 L5.80345007,2.20739146 L6.36395077,2.2761817 C6.36395077,2.2761817 6.54756422,2.20932806 6.84693948,2.22644981 C7.14631476,2.24357156 7.52532183,2.34260236 7.52532183,2.34260236 L8.12471878,2.38327161 L8.63633547,2.47611133 L9.15518808,2.61875016 L9.68732636,2.83015912 L10.2035693,3.07903599 L10.7023748,3.40130721 L11.1434114,3.7295069 L11.6610778,4.15054631 L12.0365164,4.47210613 L12.4807558,4.8054043 L12.9185896,5.18091311 L13.1483604,5.4038233 L12.1717455,6.17179635 L11.2719976,6.73784596 L10.4090226,7.24496665 L9.6895802,7.51945447 L9.06467949,7.75185019 L8.21866741,7.9246056 L7.20587279,7.99124153 L6.13898653,7.98970012 L5.10056954,7.92934838 L4.11399039,7.71153665 L3.20226171,7.44866863 L2.56039806,7.24034244 L1.74570219,6.91700411 L1.08201211,6.56817336 L0.643822442,6.13278707 L0.366246967,5.90869118 L0.43896225,5.67783684 Z" id="White" fill="#E6E6E6" transform="translate(6.757304, 5.099316) rotate(-7.000000) translate(-6.757304, -5.099316) "></path>
                            <g id="Round" transform="translate(3.887006, 2.185468)">
                                <ellipse id="Black" fill="#252424" cx="2.18644068" cy="2.18546845" rx="2.18644068" ry="2.18546845"></ellipse>
                                <ellipse id="Oval" fill="url(#linearGradient-1)" cx="1.5004985" cy="1.49983129" rx="1" ry="1"></ellipse>
                            </g>
                        </g>
                        <g id="Left-Eye" transform="translate(30.124294, 31.082218)">
                            <polygon id="Face-color" fill="#C8C8C8" points="0.231075653 3.7335086 1.50507592 2.38751046 3.30006401 1.32370713 5.26824021 0.61656011 7.02859065 0.228601518 9.10352665 0.228601518 10.8216477 0.632685528 12.2389433 1.40575705 13.5276527 2.06737348 14.4832715 2.83001091 15.21683 3.07568639 13.1494858 3.87436887 11.5343286 4.7873521 9.70375398 5.72642058 7.1851717 6.05367173 4.66658943 5.67567296 2.51051598 5.04393598 1.39357124 4.63036643"></polygon>
                            <polygon id="White" fill="#E6E6E6" points="0.231075653 4.94765774 1.50507592 3.60165958 3.30006401 2.53785627 5.26824021 1.83070925 7.02859065 1.44275066 9.10352665 1.44275066 10.8216477 1.84683467 12.2389433 2.61990619 13.5276527 3.28152262 14.4832715 4.04416005 15.21683 4.28983553 13.1494858 5.08851801 11.5343286 6.00150124 9.70375398 6.94056972 7.1851717 7.26782087 4.66658943 6.8898221 2.51051598 6.25808512 1.39357124 5.84451557"></polygon>
                            <g id="Round" transform="translate(4.615819, 0.971319)">
                                <ellipse id="Black" fill="#252424" cx="2.18644068" cy="2.18546845" rx="2.18644068" ry="2.18546845"></ellipse>
                                <ellipse id="Oval" fill="url(#linearGradient-1)" cx="1.0859322" cy="1.33313576" rx="1" ry="1"></ellipse>
                            </g>
                        </g>
                        <polygon id="Ear" fill="#C8C8C8" points="6.08815546 33.6750903 5.3712041 33.1154435 4.30763925 33.3094228 4.17976474 34.2482542 4.30265713 35.6540111 4.71688515 36.7816047 4.86967029 38.374464 5.19398283 39.4581871 5.54581568 40.8795953 5.67416468 42.2400589 6.22551974 43.6202048 6.57023526 44.7667696 7.34365068 44.854985 7.70165187 44.1843575 7.20177877 42.9310805 7.20177877 42.1599061 7.20177877 41.7100544 7.2304853 41.0875657 7.44281869 39.8250403 7.37472965 38.3455333 6.9877847 37.8404283 7.31779109 36.1351653 7.31779109 35.1925397 6.76809675 34.186124"></polygon>
                    </g>
                    <g id="Hair" fill="#000000">
                        <path d="M6.6006025,59.5677694 L8.1730557,60.2289115 L9.1215572,61.1874254 L10.5815568,62.6415587 L11.2890184,63.4586194 L12.235266,64.7658454 L13.4270613,66.4272378 L15.4977269,66.4272378 L18.3596012,66.4272378 L18.633618,64.7658454 L19.4022886,61.5170477 L20.6236207,58.3797055 L21.7818459,56.0363028 L23.7168079,53.2850219 L24.7606815,51.0696739 L25.5758519,49.1958054 L26.0864009,47.3138743 L26.6073889,45.7734226 L27.3176974,44.1589837 L28.6310802,42.4126956 L29.8675957,41.4484905 L31.3636565,40.5596954 L33.8846112,39.3597747 L35.9922868,38.7655055 L37.9225039,38.1356656 L40.3438161,37.5708017 L43.7406757,36.6331561 L46.9178473,36.0213388 L50.4599002,35.7268127 L53.1796655,35.9577856 L54.3004061,36.389852 L55.3215042,37.0656967 L58.2690235,37.3360345 L59.9833488,37.8904643 L61.7232961,37.8904643 L63.9320378,37.8904643 L66.4871558,37.5347568 L70.1634887,37.4835347 L71.8455486,38.1124261 L73.0787429,39.0889624 L74.4727886,39.8250403 L75.543708,40.9362713 L76.4608934,41.6419955 L77.9161479,42.9467316 L77.8611075,47.9285373 L78.0912342,52.1514998 L79.1659495,50.201747 L79.8245387,47.4319692 L80.5533523,45.0212193 L81.003167,41.4276224 L83.7623145,39.4968407 L84.9779529,36.389852 L85.8320313,32.7488273 L85.8320313,29.3833577 L85.6730778,25.5184745 L85.6730778,22.3621609 L84.2700167,20.8236063 L83.1155875,20.4954066 L81.222855,20.8036867 L80.5087504,21.4008014 L77.9645458,15.7882073 L76.5519951,13.0245952 L73.0303451,8.97237244 L71.4408103,7.26971797 L70.0296831,6.81441205 L68.8173662,4.62846932 L67.7711203,3.88290587 L64.5132858,3.67754393 L62.3178297,3.32515611 L59.2697188,2.85609615 L55.4681211,1.76715613 L51.1948822,0.495619474 L47.1968464,0.12046636 L41.6472348,0.408352505 L38.3490687,0.472854178 L35.3797227,1.37255766 L32.9000485,3.01829888 L30.0668808,3.56751166 L26.4849708,4.36571985 C25.0915101,4.79048347 23.9237952,5.21195761 22.981826,5.63014236 C21.5688722,6.25741945 21.6192959,6.44324143 20.3261167,7.09992682 C19.0329375,7.75661218 18.9345241,7.61135271 17.6656625,8.32972709 C16.3968009,9.04810147 16.5801746,9.1516227 15.3031868,9.94369175 C14.4518616,10.4717378 13.5683649,10.9702029 12.6526968,11.4390872 L9.7896363,13.2332771 L7.49169094,14.931663 L5.38733668,16.2724441 L4.63669668,17.7744794 L3.98285221,19.0730499 L2.20826713,21.0318139 L1.34185205,23.4411411 L1.00022069,25.5184745 L0.441273835,29.3833577 L0.180779926,32.0544858 L0.533324506,33.6167543 L0.558472368,35.5565472 L0.456931937,37.9217668 L0.456931937,39.6182556 L1.2725768,41.6230244 L2.05263506,43.6979864 L6.6006025,59.5677694 Z" id="Path-3"></path>
                    </g>
                    <g id="Eyebros" transform="translate(28.423729, 55.850860)" fill="#000000">
                        <polygon id="Path-7" points="0.180305438 10.4255572 4.08629061 7.46322299 6.64283192 6.18172651 9.97183969 6.18172651 14.2014257 6.60193595 17.8132283 6.78974964 20.8736758 7.63111707 23.3448093 8.26285404 25.5862907 7.46322299 26.0845031 6.18172651 26.0845031 3.53905504 24.9713543 2.41976129 23.3448093 1.83734913 21.0881444 1.56226846 18.7365819 1.56226846 15.9048376 1.51104655 14.305813 1.27959937 12.2484331 1.27959937 9.97183969 1.07566025 8.32821328 0.745563456 6.64283192 0.00758843212 4.99825654 0.468585684 4.08629061 1.83734913 2.69509181 3.80559871 1.56201448 6.18172651 0.710308529 7.63111704"></polygon>
                        <polygon id="Path-8" points="38.4506092 4.28746415 37.4456436 6.08971678 37.7967646 7.55618129 39.1186883 8.81965523 41.2804555 8.0712461 43.9935779 7.30291738 46.7721796 7.30291738 48.4148569 7.30291738 50.2720031 7.7952169 51.7694871 8.28941355 52.2752914 6.6152157 51.5436309 4.80158043 50.4077067 3.60829947 48.8760593 2.28791228 46.4571196 1.93505019 43.7439972 2.2689412 41.7492495 2.98130528 39.8940016 3.53715791"></polygon>
                    </g>
                    <g id="Nose" transform="translate(49.802260, 84.261950)" fill="#C8C5C5">
                        <path d="M1.84854913,1.48160067 C-0.986054663,7.66122022 -0.745364565,8.54770678 3.90353094,9.0944344 C4.10745458,9.11841657 6.08661832,9.33579338 6.77544827,9.41933505 L6.86323464,8.69614953 C6.16932051,8.61199122 4.18837198,8.39441839 3.98869288,8.37093539 C1.6822358,8.09968735 0.941488464,7.82974492 0.766588775,7.18557125 C0.561287814,6.42942653 1.01186683,5.0535281 2.51104656,1.78521936 L1.84854913,1.48160067 Z" id="Path-10"></path>
                        <path d="M15.6313284,0.118160241 C15.2406021,2.56893771 15.635664,4.02628651 16.6899058,5.38001171 C16.7804674,5.49629959 17.2556048,6.06968021 17.3651091,6.21849522 C17.9589717,7.02554748 17.8970964,7.69694881 16.7804262,9.25751537 L17.3732196,9.6813141 C18.6591789,7.88416301 18.7522633,6.87411492 17.9522167,5.78686109 C17.8276274,5.61754574 17.3435802,5.033413 17.265016,4.93253078 C16.3327751,3.73546375 15.9926613,2.48081392 16.3510604,0.232804744 L15.6313284,0.118160241 Z" id="Path-11"></path>
                    </g>
                    <g id="Group" transform="translate(13.118644, 66.292543)">
                        <path d="M5.18757724,0.771174414 L4.92138948,2.98035672 L4.92138948,4.68965105 L5.09552658,6.2832218 L5.25875045,7.88580381 L5.47179555,10.0347529 L5.69670287,11.3632028 L5.89266641,13.1725696 L6.15505826,15.203898 L6.51187323,16.1543492 L7.07983536,17.7033379 L7.95763816,19.3666273 L8.63473253,20.5641768 L9.48454051,22.0026589 L10.4420573,23.4601122 L11.4180791,24.8080073 L11.9772632,25.7641498 L12.5559013,26.7717513 L13.1191185,27.5927249 L13.891585,28.6721793 L14.7174314,29.5970195 L15.3885946,30.381948 L16.1558417,31.2007872 L17.0260527,31.9714873 L17.9093121,32.585439 L18.8746579,33.2150416 L19.9239881,33.7787199 L21.0433053,34.1975066 L22.4843253,34.6113132 L23.891894,34.8437088 L24.7405157,34.9093962 L25.0313769,35.5978093 L25.3343375,36.3115962 L25.6093033,36.973924 L26.0966023,37.4835347 L26.9796246,37.4112076 L27.1846034,36.6070708 L27.1846034,35.6006551 L27.1777234,34.515035 L27.4332352,33.0587673 L28.0253962,31.8130789 L28.9304821,30.9664945 L30.2282066,30.493166 L31.1847744,30.2557904 L32.5021904,30.0212602 L33.5330155,29.5512519 L35.1389203,28.9259175 L36.4836192,28.055145 L37.2015195,27.832709 L37.7951039,27.2443685 L38.4043466,26.7826597 L39.6206966,26.6773704 L41.363728,26.6640905 L42.5269354,26.6640905 L43.459067,26.6894643 L44.777432,26.9014661 L45.93542,27.3200156 L46.7778734,27.7530305 L47.6022963,28.1900768 L48.3683571,28.7326497 L49.1484155,28.8891611 L50.0138816,28.8590446 L50.9453014,28.7575493 L51.811242,28.5211221 L52.641596,28.282798 L52.9637734,27.6678978 L53.7319694,27.3031788 L54.513214,27.4001684 L55.4145038,27.7591962 L56.1523327,28.1796427 L56.9449649,28.6072034 L57.4692741,28.9899449 L58.0391341,29.3864406 L58.6538335,29.9984949 L59.0187147,30.6186121 L59.7793189,31.6342765 L60.2205929,31.9795502 L60.1546389,32.7466931 L60.1126468,33.6767503 L59.8559487,34.4467391 L59.7655589,35.5999436 L60.1496567,35.5999436 L60.386189,35.136575 L60.9356462,33.9757821 L61.3932898,32.7815525 L61.8423928,31.3532673 L62.1002769,30.4796491 L62.6736957,28.7971514 L63.0034649,27.4957353 L63.1963442,26.8336445 L63.5109298,25.9801831 L63.892418,25.3050497 L64.1007183,26.1862565 L63.7977578,27.6399155 L63.4575498,28.9870992 L62.9908909,30.3959391 L62.4110666,32.0623115 L61.9890097,33.7588003 L61.5401438,35.023697 L60.8170242,36.3087505 L59.8023316,37.7330045 L59.2085099,38.8539582 L58.4146915,40.2756035 L57.6118577,41.8715457 L57.3046268,42.9604857 L57.0339314,44.2649846 L56.5608668,45.4269632 L56.297526,46.9100274 L55.886145,48.5277862 L55.568238,49.520211 L55.2586346,50.5112127 L54.9672989,51.1090388 L54.5827263,51.7784808 L54.0311342,53.0021157 L53.3625804,54.0853642 L52.7967536,54.9957391 L51.7540663,55.8496747 C51.7540663,55.8496747 51.0793422,56.4535665 50.4954869,56.7730922 C49.9116317,57.0926179 48.3683571,58.4868921 48.3683571,58.4868921 L46.7778734,59.0953894 C46.7778734,59.0953894 45.7216073,59.5868983 44.4239384,60.0830713 C43.1262696,60.5792443 41.363728,60.6382126 41.363728,60.6382126 L38.8249801,60.0830713 C38.8249801,60.0830713 38.114151,59.6700214 37.2015195,59.5808121 C36.288888,59.4916024 34.8369084,58.4868921 34.8369084,58.4868921 C34.8369084,58.4868921 33.6897253,57.2264994 33.0794049,56.8883414 C32.4690848,56.5501831 31.9861848,56.0282401 31.9861848,56.0282401 L30.6898835,55.0016675 L28.9103163,53.162184 L27.6595659,52.1635939 L25.9499857,50.9055742 L24.4892745,50.2942311 L23.1825344,49.2695555 L21.1775854,47.9304345 L18.8734717,46.7388134 L16.9200046,45.1511711 L15.5705608,44.0693453 L14.3380782,42.9469688 L12.8837725,41.529829 L11.4750177,40.0882642 L10.2173872,38.5331098 L9.0283203,36.894957 L8.09168101,35.4915713 L7.32111251,33.9380769 L6.79371909,32.5420427 L6.29408324,30.5956098 L5.64284848,28.4767773 L5.11071019,26.6797416 L4.53183484,24.8362268 L4.20633606,23.1314382 L3.91476319,20.2381113 L3.63837394,17.7149576 L3.23861781,15.2280862 L2.96104234,13.2733535 L2.76270634,10.9067112 L2.51739606,9.00296329 L2.25951183,6.98254324 L1.76556983,5.32162517 L1.46901483,3.97633843 L0.673298465,1.36117501 L0.237006753,0.0467162851 L2.51739606,0.0467162851 L4.53183484,0.0467162851 L4.92138948,0.0467162851 L5.25875045,0.0467162851 L5.18757724,0.771174414 Z" id="Beard" fill="#000000"></path>
                        <polygon id="Path-4" fill="#E6E6E6" points="33.8260119 35.7156563 35.7953743 35.2401225 37.1595272 34.9355264 38.5436088 34.6886671 39.8970857 34.5240943 41.191489 34.2140426 42.4301399 33.9817312 43.4246668 33.8480725 44.9086279 33.7335079 46.4938924 33.6675878 47.7313571 33.5882565 48.938929 33.5400667 50.3763903 33.528701 51.2852721 33.5105163 52.2359088 33.5464313 53.2584303 33.7780608 54.2512967 34.0892489 55.0847348 34.319742 55.7136686 34.6848027 56.7036877 35.3730992 57.27165 35.9179627 57.5805415 36.5471584 57.599284 37.2427289 57.631549 37.9596665 57.3060502 38.680923 56.8469832 39.7656492 56.450074 41.3377293 55.8818746 42.5233813 54.9210362 44.6164572 54.1049171 45.6841352 53.3839325 46.6681626 52.6733866 47.6428706 52.1087461 48.3132094 51.6321229 48.6273527 50.9996304 48.749873 50.6041445 48.506878 50.508298 48.0361179 50.5590681 47.2066615 50.8515901 45.9807754 51.0228802 44.9994756 51.2447034 43.825871 51.2601244 43.0600617 50.8501667 42.993005 49.9004789 42.993005 49.3090297 42.993005 48.3292118 42.9598177 47.3401416 42.9598177 46.3963851 42.9777752 45.5489496 42.9957327 44.7266618 42.9284487 44.115284 42.9284487 43.4612025 42.9284487 42.7086643 43.0557428 42.2579007 43.0248286 41.8719047 43.0686994 41.8654992 43.9047477 41.9006112 44.7396596 41.9822233 45.2988437 41.9822233 46.0496505 41.9509071 46.6770278 41.9883917 47.2457588 42.057904 47.8417674 41.9561264 48.4893751 41.5615898 49.0737907 41.1428541 49.1037958 40.6771441 49.005143 39.7718209 48.9105817 38.984171 48.715322 38.0223836 48.3520796 36.838299 47.9451937 35.9422283 47.4357906 35.0613415 46.8438738 34.1368016 46.1394383 33.2722844 45.5266089 32.4749072 44.8017155 31.5347093 43.9415721 30.9071989 43.0095988 30.3347292 42.160139 29.9257205 41.2981771 29.5131532 40.187083 29.4998677 39.2051013 29.4998677 38.5759054 29.6794612 37.9142043 30.1394774 37.0306481 30.8025743 36.6853633 31.8514301 36.3012084 32.5577056 36.0443474"></polygon>
                        <g id="Lips" transform="translate(32.067797, 32.782027)">
                            <path d="M0.394062526,3.23290923 L1.48617576,2.56346722 L2.8390542,1.99386054 L4.26995891,1.60329342 L5.73314156,1.33010987 L7.38846703,1.07044321 L8.78226478,0.851801506 L10.293229,0.728726622 L11.7398914,0.562018253 L13.2856751,0.369461788 L14.4621685,0.325116889 L15.8788405,0.248284014 L17.1099776,0.184730895 L18.3324735,0.184730895 L19.4294157,0.184730895 L20.5731228,0.184730895 L21.8660202,0.312548549 L22.8435086,0.577195117 L23.4822054,0.83069618 L24.1671589,1.0180356 L24.7395209,1.36900058 L25.2829087,1.87576557 L25.5637524,2.52742217 L25.5482488,3.97870981 L24.7799319,4.96070035 L23.863187,6.24433109 L23.1554886,6.81061783 L22.3341499,7.28228631 C22.3341499,7.28228631 21.7341152,7.67747299 21.1040398,7.91805465 C20.4739643,8.15863629 20.1159884,8.55667959 19.4294157,8.77104184 C18.742843,8.98540408 17.8011288,9.03189419 17.8011288,9.03189419 L16.4625982,9.3681566 L14.7824362,9.3681566 C14.7824362,9.3681566 13.9298733,9.25880467 12.848779,9.3681566 C11.7676848,9.47750851 11.248651,9.24654636 9.95380913,9.03189419 C8.65896733,8.81724204 7.74411855,8.2787423 7.74411855,8.2787423 L6.52467259,7.91805465 L4.89790232,7.28228631 C4.89790232,7.28228631 4.38763648,7.04471334 3.79590395,6.56043672 C3.20417143,6.07616007 2.80093065,5.56611496 2.80093065,5.56611496 L1.77083176,4.77881513 L0.608062837,4.09585624 L0.133805614,3.55375761 L0.394062526,3.23290923 Z" id="Path-5" fill="#BCB3B4"></path>
                            <polygon id="Path-6" fill="#979595" points="1.23438052 3.78184291 3.09075913 3.71410837 4.65453957 3.63543648 7.00895217 3.51378294 9.38521962 3.57979055 11.4938292 3.81043343 13.4779945 4.04299512 15.190131 4.1832613 17.0189982 4.11994005 18.6244314 3.80602012 19.9300672 3.55983474 21.0315528 3.39021053 22.0736446 3.22461586 22.8632483 2.97612791 23.9557348 2.91395793 24.4987641 3.04578129 23.5613186 3.63063943 22.6727252 3.80985777 21.5915518 4.1335637 20.3378535 4.50005948 18.8653493 4.82203847 16.2854458 5.12655614 14.9726107 5.13902851 12.8735145 5.00567011 10.822756 4.84717508 8.64061126 4.63821493 7.32469079 4.45151318 5.6482935 4.35211798 4.32183127 4.33676739 2.87503867 4.30606618 1.72033004 4.08117977"></polygon>
                        </g>
                    </g>
                </g>
            </g>
        </g>
    </g>
</svg>