<?xml version="1.0" encoding="UTF-8"?>
<svg width="29px" height="23px" viewBox="0 0 29 23" version="1.1" xmlns="http://www.w3.org/2000/svg" xmlns:xlink="http://www.w3.org/1999/xlink">
    <!-- Generator: Sketch 44.1 (41455) - http://www.bohemiancoding.com/sketch -->
    <title>twitter-2 - fontello</title>
    <desc>Created with Sketch.</desc>
    <defs></defs>
    <g id="welcome" stroke="none" stroke-width="1" fill="none" fill-rule="evenodd">
        <g id="social__icons" transform="translate(-200.000000, -559.000000)" fill="#B0B0B0">
            <g id="Left">
                <path d="M213.68,564.83 C213.68,563.229992 214.249994,561.880006 215.39,560.78 C216.530006,559.679995 217.899992,559.12 219.5,559.1 C221.200008,559.1 222.589995,559.689994 223.67,560.87 C224.870006,560.609999 226.089994,560.160003 227.33,559.52 C226.929998,560.860007 226.100006,561.919996 224.84,562.7 C225.900005,562.539999 226.999994,562.230002 228.14,561.77 C227.359996,562.930006 226.390006,563.939996 225.23,564.8 L225.23,565.52 C225.23,568.240014 224.630006,570.799988 223.43,573.2 C222.229994,575.600012 220.330013,577.649991 217.73,579.35 C215.129987,581.050008 212.170017,581.9 208.85,581.9 C205.609984,581.9 202.660013,581.040009 200,579.32 C200.400002,579.36 200.879997,579.38 201.44,579.38 C204.100013,579.38 206.46999,578.570008 208.55,576.95 C207.249993,576.93 206.120005,576.530004 205.16,575.75 C204.199995,574.969996 203.540002,574.020006 203.18,572.9 C203.440001,573 203.789998,573.05 204.23,573.05 C204.670002,573.05 205.169997,572.990001 205.73,572.87 C204.429993,572.589999 203.350004,571.920005 202.49,570.86 C201.629996,569.799995 201.19,568.550007 201.17,567.11 C201.890004,567.510002 202.749995,567.75 203.75,567.83 C202.029991,566.629994 201.17,565.02001 201.17,563 C201.17,562.039995 201.429997,561.090005 201.95,560.15 C205.110016,563.970019 209.089976,565.959999 213.89,566.12 C213.749999,565.679998 213.68,565.250002 213.68,564.83 Z" id="twitter-2---fontello"></path>
            </g>
        </g>
    </g>
</svg>